<?xml version="1.0" encoding="UTF-8"?>
<svg width="24px" height="24px" viewBox="0 0 24 24" version="1.1" xmlns="http://www.w3.org/2000/svg" xmlns:xlink="http://www.w3.org/1999/xlink">
    <title>AA3C21A9-3F7C-4D52-9D6D-6DA7BB5ADE4A@1x</title>
    <g id="Page-1" stroke="none" stroke-width="1" fill="none" fill-rule="evenodd">
        <g id="1" transform="translate(-315, -280)" fill="#31353B">
            <g id="Cuts-sites" transform="translate(316.3333, 280)">
                <g id="Group" transform="translate(-0, 1.3333)" fill-rule="nonzero">
                    <path d="M6.6518957,10.5229997 C6.70065206,11.0802875 6.56846548,11.6089344 6.2959273,12.0837111 L18.9157155,12.0828286 L18.9157155,12.2435252 C18.9157155,13.3480947 18.020285,14.2435252 16.9157155,14.2435252 L2.1987633,14.2426601 L2.16951781,14.245322 C-0.198316261,14.3707232 -2.28382873,13.1758343 -2.4462818,11.3189871 C-2.61381154,9.4041135 -0.645038444,7.8273891 1.8133346,7.61230933 C4.27170764,7.39722956 6.48436596,8.60812611 6.6518957,10.5229997 Z M1.95819392,9.26805893 C0.30622753,9.41258726 -0.862741202,10.3487751 -0.790532201,11.1741278 C-0.7183232,11.9994805 0.59545359,12.7184563 2.24741998,12.5739279 C3.89938636,12.4293996 5.0683551,11.4932117 4.9961461,10.6678591 C4.92393709,9.8425064 3.6101603,9.1235306 1.95819392,9.26805893 Z" id="Combined-Shape" transform="translate(8.2297, 10.921) rotate(-60) translate(-8.2297, -10.921)"></path>
                    <path d="M11.3185624,10.5229997 C11.3673187,11.0802875 11.2351321,11.6089344 10.962594,12.0837111 L23.5823822,12.0828286 L23.5823822,12.2435252 C23.5823822,13.3480947 22.6869517,14.2435252 21.5823822,14.2435252 L6.86542996,14.2426601 L6.83618448,14.245322 C4.46835041,14.3707232 2.38283794,13.1758343 2.22038487,11.3189871 C2.05285513,9.4041135 4.02162822,7.8273891 6.48000126,7.61230933 C8.93837431,7.39722956 11.1510326,8.60812611 11.3185624,10.5229997 Z M6.62486058,9.26805893 C4.9728942,9.41258726 3.80392546,10.3487751 3.87613447,11.1741278 C3.94834347,11.9994805 5.26212026,12.7184563 6.91408664,12.5739279 C8.56605303,12.4293996 9.73502176,11.4932117 9.66281276,10.6678591 C9.59060376,9.8425064 8.27682697,9.1235306 6.62486058,9.26805893 Z" id="Combined-Shape" transform="translate(12.8964, 10.921) scale(-1, 1) rotate(-60) translate(-12.8964, -10.921)"></path>
                </g>
                <rect id="Rectangle-Copy-5" x="10" y="0" width="1.33333333" height="2.66666667"></rect>
                <rect id="Rectangle-Copy-6" x="10" y="4" width="1.33333333" height="2.66666667"></rect>
            </g>
        </g>
    </g>
</svg>