<?xml version="1.0" encoding="UTF-8"?>
<svg width="24px" height="24px" viewBox="0 0 24 24" version="1.1" xmlns="http://www.w3.org/2000/svg" xmlns:xlink="http://www.w3.org/1999/xlink">
    <title>023913C0-B0C4-4580-8045-2CEF2481587B@1x</title>
    <g id="Page-1" stroke="none" stroke-width="1" fill="none" fill-rule="evenodd">
        <g id="1" transform="translate(-315, -316)" fill="#31353B">
            <g id="hotkeys-editor" transform="translate(315.8453, 317.8373)">
                <path d="M12.5373659,4.95159469e-14 C12.5907062,0.0619339764 12.6517322,0.118922922 12.7204291,0.169630983 C14.2626758,1.3080285 16.5220025,4.41755084 14.7543219,7.22224354 C14.3926895,7.7960281 14.4626025,8.58919461 15.0033765,8.99604394 C15.5441504,9.40289328 16.3461959,9.31159584 16.7530452,8.77082191 C17.1952653,8.18303405 17.5038191,7.5641019 17.6992763,6.93147181 C18.312067,8.80005033 18.5089629,10.2763628 18.4742703,11.4398089 C18.4837116,11.5619725 18.4880339,11.6862827 18.4880339,11.8116023 C18.4880339,14.757121 16.1002192,17.1449357 13.1547005,17.1449357 C11.7603921,17.1449357 10.4910514,16.6098852 9.5407977,15.7339034 L7.559,16.8769276 L8.57198437,18.6298968 L7.15532568,19.4497952 L6.22008468,17.8293639 L5.06717001,18.4949995 L6.00232568,20.1187952 L3.95746485,21.3039812 L2.944,19.5419276 L1.33333333,20.4720983 L-1.24344979e-14,18.1626972 L8.09128317,13.4913858 C7.91616479,12.9632503 7.82136721,12.3984969 7.82136721,11.8116023 C7.82136721,10.2837397 8.46382654,8.90593159 9.49333109,7.93359197 C12.3274792,5.26456607 12.6768692,2.08916972 12.5456744,0.0992778928 L12.5373659,4.95159469e-14 Z M13.1547005,10.1626972 C12.050131,10.1626972 11.1547005,11.0581277 11.1547005,12.1626972 C11.1547005,13.2672667 12.050131,14.1626972 13.1547005,14.1626972 C14.25927,14.1626972 15.1547005,13.2672667 15.1547005,12.1626972 C15.1547005,11.0581277 14.25927,10.1626972 13.1547005,10.1626972 Z" id="Combined-Shape"></path>
            </g>
        </g>
    </g>
</svg>