<?xml version="1.0" encoding="UTF-8"?>
<svg width="24px" height="24px" viewBox="0 0 24 24" version="1.1" xmlns="http://www.w3.org/2000/svg" xmlns:xlink="http://www.w3.org/1999/xlink">
    <title>3BFF67E5-B938-422D-81FD-43BF1A757E54@1x</title>
    <g id="Page-1" stroke="none" stroke-width="1" fill="none" fill-rule="evenodd">
        <g id="1" transform="translate(-315, -101)" fill="#31353B">
            <g id="Import-Sequence" transform="translate(317.6667, 105)">
                <path d="M14.6666667,1.33333333 C16.139426,1.33333333 17.3333333,2.52724067 17.3333333,4 L17.3333333,13.3333333 C17.3333333,14.8060927 16.139426,16 14.6666667,16 L5.33333333,16 C3.860574,16 2.66666667,14.8060927 2.66666667,13.3333333 L2.66633333,7.59633333 L3.99933333,8.78733333 L4,13.3333333 C4,14.069713 4.59695367,14.6666667 5.33333333,14.6666667 L14.6666667,14.6666667 C15.4030463,14.6666667 16,14.069713 16,13.3333333 L16,4 C16,3.26362033 15.4030463,2.66666667 14.6666667,2.66666667 L9.74867765,2.6660845 C9.50845099,2.18486916 9.22589135,1.73684628 8.90549167,1.33221899 L14.6666667,1.33333333 Z" id="Combined-Shape" fill-rule="nonzero"></path>
                <path d="M7.28175494,-0.695416375 C6.99878645,-1.00148517 6.51503715,-0.821070648 6.51476859,-0.409692907 L6.51362701,0.992819707 C6.51378336,1.21636065 6.35974602,1.39308327 6.14761253,1.43146586 C4.62989331,1.70521092 3.28543766,2.39795017 2.40037713,3.3575192 C1.62799414,4.19492498 0.848980361,5.81467945 0.848980361,7.48726457 C0.848980361,9.15984969 1.35711329,10.6555401 1.63840868,10.6555401 C1.91970406,10.6555401 1.63840868,9.71345317 1.99563024,8.3127451 C2.35285181,6.91203702 2.92342064,6.06675634 3.81282837,5.54017014 C4.49807815,5.13445849 5.39846074,4.96940791 5.97481411,4.96940791 C6.24347516,4.96940791 6.5106357,5.24692296 6.51010089,5.54017014 L6.50972632,6.89819656 C6.50918067,7.32267162 7.00770285,7.56158438 7.29892655,7.27701022 L10.2946786,3.91766701 C10.7753374,3.44979475 10.7756795,2.64933018 10.2965879,2.13028721 L7.28175494,-0.695416375 Z" id="Fill-1" transform="translate(5.7523, 4.9033) rotate(90) translate(-5.7523, -4.9033)"></path>
            </g>
        </g>
    </g>
</svg>