<?xml version="1.0" encoding="UTF-8"?>
<svg width="24px" height="24px" viewBox="0 0 24 24" version="1.1" xmlns="http://www.w3.org/2000/svg" xmlns:xlink="http://www.w3.org/1999/xlink">
    <title>6AC14E2C-B155-46B6-80FD-DD7D0D5E81FA@1x</title>
    <g id="Page-1" stroke="none" stroke-width="1" fill="none" fill-rule="evenodd">
        <g id="1" transform="translate(-315, -29)" fill="#31353B">
            <g id="Save" transform="translate(320.3333, 33)">
                <path d="M2.66666667,0 L2.66666667,6.66666667 L10.6666667,6.66666667 L10.6666667,0 L12,0 L14.6666667,2.66666667 L14.6666667,15.0526621 C14.6666667,15.6049468 14.2189514,16.0526621 13.6666667,16.0526621 L1,16.0526621 C0.44771525,16.0526621 -5.68096012e-14,15.6049468 -5.68434189e-14,15.0526621 L-5.68434189e-14,1 C-5.69110542e-14,0.44771525 0.44771525,6.76353751e-17 1,0 L2.66666667,0 Z M11.6666667,9.33333333 L3,9.33333333 C2.44771525,9.33333333 2,9.78104858 2,10.3333333 L2,14.6666667 L12.6666667,14.6666667 L12.6666667,10.3333333 C12.6666667,9.78104858 12.2189514,9.33333333 11.6666667,9.33333333 Z M9.33333333,1.33333333 L9.33333333,5.33333333 L8,5.33333333 L8,1.33333333 L9.33333333,1.33333333 Z" id="Combined-Shape"></path>
            </g>
        </g>
    </g>
</svg>