<?xml version="1.0" encoding="UTF-8"?>
<svg width="24px" height="24px" viewBox="0 0 24 24" version="1.1" xmlns="http://www.w3.org/2000/svg" xmlns:xlink="http://www.w3.org/1999/xlink">
    <title>070844B0-728D-4EA4-BFA5-0E57BA8E56E6@1x</title>
    <g id="Page-1" stroke="none" stroke-width="1" fill="none" fill-rule="evenodd">
        <g id="1" transform="translate(-315, -497)" fill="#31353B">
            <g id="Search-tool" transform="translate(316.7972, 499.035)">
                <path d="M14.2028049,3.29832947 C14.2028049,5.00331126 13.136073,6.45914446 11.6336083,7.03483001 L12.6711924,18.4505913 C12.7711954,19.5506246 11.9605107,20.5234462 10.8604774,20.6234492 C10.8002754,20.6289221 10.7398562,20.6316628 10.679406,20.6316628 L9.7262039,20.6316628 C8.6216344,20.6316628 7.7262039,19.7362323 7.7262039,18.6316628 C7.7262039,18.5712125 7.72894457,18.5107933 7.73441749,18.4505913 L8.77200155,7.03483001 C7.26953682,6.45914446 6.20280493,5.00331126 6.20280493,3.29832947 C6.20280493,1.77413786 7.05530599,0.449058535 8.30950367,-0.226104047 L8.31000729,3.09132513 L10.2028049,4.18413236 L12.0956026,3.09132513 L12.0961062,-0.226104047 C13.3503039,0.449058535 14.2028049,1.77413786 14.2028049,3.29832947 Z M10.2028049,19.2983295 C10.9391846,19.2983295 11.5361383,18.7013758 11.5361383,17.9649961 C11.5361383,17.2286165 10.9391846,16.6316628 10.2028049,16.6316628 C9.46642526,16.6316628 8.86947159,17.2286165 8.86947159,17.9649961 C8.86947159,18.7013758 9.46642526,19.2983295 10.2028049,19.2983295 Z" id="Combined-Shape" transform="translate(10.2028, 10.2027) rotate(45) translate(-10.2028, -10.2027)"></path>
            </g>
        </g>
    </g>
</svg>