<?xml version="1.0" encoding="UTF-8"?>
<svg width="24px" height="24px" viewBox="0 0 24 24" version="1.1" xmlns="http://www.w3.org/2000/svg" xmlns:xlink="http://www.w3.org/1999/xlink">
    <title>8CBEBE0B-FFD0-4899-9CB7-534BC75BB264@1x</title>
    <defs>
        <path d="M6.66666667,0 C10.348565,0 13.3333333,2.98476833 13.3333333,6.66666667 C13.3333333,8.16101457 12.841667,9.54052764 12.0112764,10.6522638 L16.0419641,14.5270121 C16.2309543,14.7087016 16.247521,15.0055114 16.0799241,15.2071041 L15.3952385,16.030673 C15.2187034,16.243017 14.9034546,16.2720458 14.6911106,16.0955106 C14.681666,16.0876587 14.6725139,16.0794615 14.663673,16.0709356 L10.5399321,12.0933746 C9.44821112,12.8739745 8.11108339,13.3333333 6.66666667,13.3333333 C2.98476833,13.3333333 0,10.348565 0,6.66666667 C0,2.98476833 2.98476833,0 6.66666667,0 Z M6.66666667,1.66666667 C3.90524292,1.66666667 1.66666667,3.90524292 1.66666667,6.66666667 C1.66666667,9.42809042 3.90524292,11.6666667 6.66666667,11.6666667 C9.42809042,11.6666667 11.6666667,9.42809042 11.6666667,6.66666667 C11.6666667,3.90524292 9.42809042,1.66666667 6.66666667,1.66666667 Z" id="path-1"></path>
    </defs>
    <g id="Page-1" stroke="none" stroke-width="1" fill="none" fill-rule="evenodd">
        <g id="1" transform="translate(-315, -460)">
            <g id="Search" transform="translate(319, 464)">
                <mask id="mask-2" fill="white">
                    <use xlink:href="#path-1"></use>
                </mask>
                <use id="Combined-Shape" fill="#31353B" xlink:href="#path-1"></use>
            </g>
        </g>
    </g>
</svg>