<?xml version="1.0" encoding="UTF-8"?>
<svg width="24px" height="24px" viewBox="0 0 24 24" version="1.1" xmlns="http://www.w3.org/2000/svg" xmlns:xlink="http://www.w3.org/1999/xlink">
    <title>55B61C15-83D7-42F5-A08F-85DEA15CD575@1x</title>
    <g id="Page-1" stroke="none" stroke-width="1" fill="none" fill-rule="evenodd">
        <g id="1" transform="translate(-315, -245)">
            <g id="View" transform="translate(317.6641, 250.3333)">
                <polygon id="Rectangle-Copy-4" fill="#31353B" fill-rule="nonzero" transform="translate(12.6692, 12) scale(-1, 1) translate(-12.6692, -12)" points="8.00253245 10.6666667 17.3358658 10.6666667 17.3358658 13.3333333 8.00253245 13.3333333"></polygon>
                <polygon id="Rectangle-Copy-7" fill="#31353B" fill-rule="nonzero" transform="translate(12.6692, 1.3333) scale(-1, 1) translate(-12.6692, -1.3333)" points="8.00253245 0 17.3358658 0 17.3358658 2.66666667 8.00253245 2.66666667"></polygon>
                <polygon id="Rectangle-Copy-6" fill="#31353B" fill-rule="nonzero" transform="translate(12.6692, 6.6667) scale(-1, 1) translate(-12.6692, -6.6667)" points="8.00253245 5.33333333 17.3358658 5.33333333 17.3358658 8 8.00253245 8"></polygon>
                <polygon id="Rectangle-Copy-5" fill="#31353B" fill-rule="nonzero" transform="translate(2.6692, 12) scale(-1, 1) translate(-2.6692, -12)" points="1.33586579 10.6666667 4.00253245 10.6666667 4.00253245 13.3333333 1.33586579 13.3333333"></polygon>
                <polygon id="Rectangle-Copy-8" fill="#31353B" fill-rule="nonzero" transform="translate(2.6692, 1.3333) scale(-1, 1) translate(-2.6692, -1.3333)" points="1.33586579 0 4.00253245 0 4.00253245 2.66666667 1.33586579 2.66666667"></polygon>
                <polyline id="Path-3" stroke="#31353B" points="0 5.33333333 2.66919912 8 6.66919912 4"></polyline>
            </g>
        </g>
    </g>
</svg>