<?xml version="1.0" encoding="UTF-8"?>
<svg width="24px" height="24px" viewBox="0 0 24 24" version="1.1" xmlns="http://www.w3.org/2000/svg" xmlns:xlink="http://www.w3.org/1999/xlink">
    <title>9D254B9C-EC90-4DB7-8174-8C75883BF0D6@1x</title>
    <g id="Page-1" stroke="none" stroke-width="1" fill="none" fill-rule="evenodd">
        <g id="1" transform="translate(-315, -137)" fill="#19232E">
            <g id="Export-Sequence" transform="translate(319, 138.3333)">
                <path d="M8.02154833,3.99844548 C7.74709115,4.40120374 7.50317999,4.85232694 7.30058857,5.33252302 L2.66666667,5.33333333 C1.930287,5.33333333 1.33333333,5.930287 1.33333333,6.66666667 L1.33333333,16 C1.33333333,16.7363797 1.930287,17.3333333 2.66666667,17.3333333 L12,17.3333333 C12.7363797,17.3333333 13.3333333,16.7363797 13.3333333,16 L13.3334918,9.38740007 C13.7385088,9.5953687 14.2157963,9.65493801 14.6668257,9.51385826 L14.6666667,16 C14.6666667,17.4727593 13.4727593,18.6666667 12,18.6666667 L2.66666667,18.6666667 C1.19390733,18.6666667 0,17.4727593 0,16 L0,6.66666667 C0,5.19390733 1.19390733,4 2.66666667,4 Z" id="Combined-Shape" fill-rule="nonzero"></path>
                <path d="M14.4327746,0.153563986 C14.1498061,-0.15250481 13.6660568,0.0279097127 13.6657882,0.439287453 L13.6646467,1.84180007 C13.664803,2.06534101 13.5107657,2.24206363 13.2986322,2.28044623 C11.7809129,2.55419128 10.4364573,3.24693053 9.55139677,4.20649956 C8.77901378,5.04390534 8,6.66365981 8,8.33624493 C8,10.0088301 8.50813293,11.5045205 8.78942832,11.5045205 C9.0707237,11.5045205 8.78942832,10.5624335 9.14664988,9.16172546 C9.50387144,7.76101738 10.0744403,6.9157367 10.963848,6.3891505 C11.6490978,5.98343885 12.5494804,5.81838827 13.1258337,5.81838827 C13.3944948,5.81838827 13.6616553,6.09590332 13.6611205,6.3891505 L13.660746,7.74717692 C13.6602003,8.17165198 14.1587225,8.41056475 14.4499462,8.12599058 L17.4456982,4.76664737 C17.926357,4.29877512 17.9266991,3.49831054 17.4476076,2.97926757 L14.4327746,0.153563986 Z" id="Fill-1"></path>
            </g>
        </g>
    </g>
</svg>