<?xml version="1.0" encoding="UTF-8"?>
<svg width="24px" height="24px" viewBox="0 0 24 24" version="1.1" xmlns="http://www.w3.org/2000/svg" xmlns:xlink="http://www.w3.org/1999/xlink">
    <title>D17618D6-48C8-4882-A49C-4106C144E5CF@1x</title>
    <g id="Page-1" stroke="none" stroke-width="1" fill="none" fill-rule="evenodd">
        <g id="1" transform="translate(-279, -322)">
            <g id="Hotkey-drop-down" transform="translate(279, 322)">
                <rect id="Rectangle-5-Copy-13" x="0" y="0" width="24" height="24" rx="2"></rect>
                <g id="more" transform="translate(20, 20)" fill="#9AA7B4">
                    <path d="M2.51981867,3 L0.479832617,3 C0.215157503,3 0,2.7844186 0,2.51965116 L2.51946995,0 C2.78414507,0 2.99965171,0.214883721 2.99965171,0.48 L2.99965171,2.51965116 C3,2.7844186 2.78449378,3 2.51981867,3 Z" id="Fill-49-Copy"></path>
                </g>
                <g id="icon-/-charge+" transform="translate(3.634, 4.3772)" fill="#31353B">
                    <path d="M9.40233265,-7.63278329e-17 C9.44250175,0.0467614587 9.48850192,0.0897770756 9.5403218,0.128027522 C10.6970069,0.981825663 12.3915018,3.31396741 11.0657414,5.41748694 C10.7945171,5.84782536 10.8469519,6.44270024 11.2525323,6.74783724 C11.6581128,7.05297424 12.2596469,6.98450117 12.5647839,6.57892072 C12.8964625,6.13806192 13.1278831,5.67384301 13.2744751,5.19935034 C13.733181,6.59802573 13.8811897,7.70395551 13.8558424,8.57591906 C13.8626659,8.66892664 13.8660254,8.763824 13.8660254,8.85950602 C13.8660254,11.068645 12.0751644,12.859506 9.8660254,12.859506 C8.82033696,12.859506 7.86836663,12.4582511 7.15568594,11.8013127 L5.669,12.658 L6.42898828,13.9732269 L5.36624426,14.5881507 L4.66506351,13.3728272 L3.8003775,13.8720539 L4.50124426,15.0891507 L2.96809864,15.9787902 L2.208,14.656 L1,15.354878 L0,13.6228272 L6.06842257,10.1192236 C5.93710923,9.72315645 5.8660254,9.2996325 5.8660254,8.85950602 C5.8660254,7.71364649 6.34783845,6.68032042 7.11992272,5.95106966 C9.26546435,3.9312373 9.51241376,1.52368623 9.40643428,0.0339815568 L9.40233265,-7.63278329e-17 Z M9.8660254,7.62282719 C9.03759828,7.62282719 8.3660254,8.29440006 8.3660254,9.12282719 C8.3660254,9.95125431 9.03759828,10.6228272 9.8660254,10.6228272 C10.6944525,10.6228272 11.3660254,9.95125431 11.3660254,9.12282719 C11.3660254,8.29440006 10.6944525,7.62282719 9.8660254,7.62282719 Z" id="Combined-Shape"></path>
                </g>
            </g>
        </g>
    </g>
</svg>