<?xml version="1.0" encoding="UTF-8"?>
<svg width="24px" height="24px" viewBox="0 0 24 24" version="1.1" xmlns="http://www.w3.org/2000/svg" xmlns:xlink="http://www.w3.org/1999/xlink">
    <title>949A6893-92D2-4754-AA1E-47FA059F7EBE@1x</title>
    <g id="Page-1" stroke="none" stroke-width="1" fill="none" fill-rule="evenodd">
        <g id="1" transform="translate(-315, -209)" fill="gray" fill-rule="nonzero">
            <g id="Redo" transform="translate(317.803, 213.1061)">
                <path d="M14.4718891,2.59736342 C14.3727096,2.15920137 13.8239703,2.06691134 13.6020357,2.45073439 L12.8451819,3.75918286 C12.7248658,3.9679136 12.4858593,4.04985336 12.2671765,3.9713637 C10.7030663,3.40899824 9.00481974,3.40813571 7.52932071,3.94462546 C5.72864284,4.57858039 4.2580215,5.98449405 3.49303826,7.66814033 C2.71260903,9.35006158 2.66117995,11.1169362 3.18167952,12.9209098 C3.70217909,14.7248833 5.76807996,16.5567812 6.14786723,16.4624902 C6.52765449,16.3681991 4.54613211,14.6636959 4.3717861,12.7171067 C4.1974401,10.7705176 4.43605692,9.80719914 5.22542858,8.79545883 C6.01317433,7.77423075 7.13504136,7.18253948 8.23902355,7.09024945 C8.89263303,7.03332288 9.51941526,7.15062611 10.0746581,7.39644536 C10.353499,7.51978626 10.461621,7.88118369 10.3030963,8.15460371 L9.65924217,9.26898435 C9.42999108,9.66488273 9.76655119,10.1565212 10.1917225,10.0478433 L15.172273,9.28965045 C15.8730334,9.11197057 16.3047083,8.36502503 16.1372412,7.62239211 L14.4718891,2.59736342 Z" id="Fill-1" transform="translate(9.5066, 9.3377) rotate(-300) translate(-9.5066, -9.3377)"></path>
            </g>
        </g>
    </g>
</svg>