<?xml version="1.0" encoding="UTF-8"?>
<svg width="24px" height="25px" viewBox="0 0 24 25" version="1.1" xmlns="http://www.w3.org/2000/svg" xmlns:xlink="http://www.w3.org/1999/xlink">
    <title>C1B447F2-77AF-42C9-9993-D83B128D0B24@1x</title>
    <g id="Page-1" stroke="none" stroke-width="1" fill="none" fill-rule="evenodd">
        <g id="1" transform="translate(-315, -65)" fill="#19232E">
            <g id="Save-as" transform="translate(320.3333, 69)">
                <path d="M3.43033439,16 L3.433,16.052 L1,16.0526621 C0.44771525,16.0526621 3.38176876e-17,15.6049468 0,15.0526621 L0,1 C-6.76353751e-17,0.44771525 0.44771525,-1.70872146e-15 1,-1.77635684e-15 L2.66666667,-1.77635684e-15 L2.66666667,6.66666667 L10.6666667,6.66666667 L10.6666667,-1.77635684e-15 L12,-1.77635684e-15 L14.6666667,2.66666667 L14.666,12.43 L12.666,11.43 L12.6666667,10.3333333 C12.6666667,9.78104858 12.2189514,9.33333333 11.6666667,9.33333333 L3,9.33333333 C2.44771525,9.33333333 2,9.78104858 2,10.3333333 L2,14.6666667 L3.43033439,14.6666667 L3.43033439,16 Z M9.33333333,1.33333333 L9.33333333,5.33333333 L8,5.33333333 L8,1.33333333 L9.33333333,1.33333333 Z" id="Combined-Shape"></path>
                <polygon id="Path" transform="translate(10.3891, 15.4026) rotate(129) translate(-10.3891, -15.4026)" points="6.80421629 11.0857773 8.40919903 18.364485 9.6424944 15.6501027 12.9378251 19.7194972 13.9740197 18.8804033 10.678689 14.8110088 13.5901721 14.1690157"></polygon>
            </g>
        </g>
    </g>
</svg>