<?xml version="1.0" encoding="UTF-8"?>
<svg width="24px" height="24px" viewBox="0 0 24 24" version="1.1" xmlns="http://www.w3.org/2000/svg" xmlns:xlink="http://www.w3.org/1999/xlink">
    <title>D3B98B53-E88A-4024-8ECA-0531C2B355B8@1x</title>
    <g id="Page-1" stroke="none" stroke-width="1" fill="none" fill-rule="evenodd">
        <g id="1" transform="translate(-315, -427)" fill="#31353B" fill-rule="nonzero">
            <g id="Show-Feature-Copy-2" transform="translate(317.6667, 429.6667)">
                <path d="M9.33333333,0 C14.487991,0 18.6666667,4.17867567 18.6666667,9.33333333 C18.6666667,14.487991 14.487991,18.6666667 9.33333333,18.6666667 C4.17867567,18.6666667 0,14.487991 0,9.33333333 C0,4.17867567 4.17867567,0 9.33333333,0 Z M9.33333333,5.33333333 C7.12419433,5.33333333 5.33333333,7.12419433 5.33333333,9.33333333 C5.33333333,11.5424723 7.12419433,13.3333333 9.33333333,13.3333333 C11.5424723,13.3333333 13.3333333,11.5424723 13.3333333,9.33333333 C13.3333333,7.12419433 11.5424723,5.33333333 9.33333333,5.33333333 Z M14.6666667,9.33333333 C14.6666667,12.278852 12.278852,14.6666667 9.33333333,14.6666667 C6.38781467,14.6666667 4,12.278852 4,9.33333333 C4,6.38781467 6.38781467,4 9.33333333,4 L9.55317294,4.00444856 L9.33333333,4 L10.6666667,2.66666667 L9.33333333,1.33333333 C4.91505533,1.33333333 1.33333333,4.91505533 1.33333333,9.33333333 C1.33333333,13.7516113 4.91505533,17.3333333 9.33333333,17.3333333 C13.7516113,17.3333333 17.3333333,13.7516113 17.3333333,9.33333333 L14.6666667,9.33333333 Z" id="Combined-Shape"></path>
            </g>
        </g>
    </g>
</svg>