<?xml version="1.0" encoding="UTF-8"?>
<svg width="24px" height="27px" viewBox="0 0 24 27" version="1.1" xmlns="http://www.w3.org/2000/svg" xmlns:xlink="http://www.w3.org/1999/xlink">
    <title>A72E8336-D4B3-40D4-9CF4-6DB91A1B0E2F@1x</title>
    <g id="Page-1" stroke="none" stroke-width="1" fill="none" fill-rule="evenodd">
        <g id="1" transform="translate(-315, -388)" fill="#31353B">
            <g id="Reading-Frame" transform="translate(319, 393.3333)">
                <path d="M13.6470588,1.79311419 C14.5598651,2.43744803 15.3556662,3.23324909 16,4.14605536 C12.8812155,8.56433336 6.77121918,9.61778101 2.35294118,6.49899654 C1.44013491,5.8546627 0.644333838,5.05886163 2.48689958e-14,4.14605536 C3.11878447,-0.272222634 9.22878082,-1.32567028 13.6470588,1.79311419 Z M1.70145118,4.1454572 C2.12520307,4.61814614 2.60152143,5.04241382 3.12185211,5.40970606 C6.66726164,7.91234808 11.4736917,7.30497463 14.2985488,4.14665353 C13.8747969,3.67396459 13.3984786,3.24969691 12.8781479,2.88240467 C9.33273836,0.379762651 4.52630833,0.987136101 1.70145118,4.1454572 Z M8,2.14605536 C9.1045695,2.14605536 10,3.04148586 10,4.14605536 C10,5.25062486 9.1045695,6.14605536 8,6.14605536 C6.8954305,6.14605536 6,5.25062486 6,4.14605536 C6,3.04148586 6.8954305,2.14605536 8,2.14605536 Z" id="Combined-Shape"></path>
                <polygon id="Path" transform="translate(9.0073, 12.736) rotate(129) translate(-9.0073, -12.736)" points="3.71367235 6.30902941 5.31865509 13.5877371 6.55195046 10.8733548 13.2647013 19.1629117 14.3008959 18.3238179 7.58814508 10.0342609 10.4996282 9.39226785"></polygon>
            </g>
        </g>
    </g>
</svg>