<?xml version="1.0" encoding="UTF-8"?>
<svg width="24px" height="24px" viewBox="0 0 24 24" version="1.1" xmlns="http://www.w3.org/2000/svg" xmlns:xlink="http://www.w3.org/1999/xlink">
    <title>F4052428-DE3F-4E55-B181-043AFD094E0C@1x</title>
    <g id="Page-1" stroke="none" stroke-width="1" fill="none" fill-rule="evenodd">
        <g id="1" transform="translate(-279, -245)">
            <g id="View-all-drop-down" transform="translate(279, 245)">
                <rect id="Rectangle-5-Copy-13" x="0" y="0" width="24" height="24" rx="2"></rect>
                <g id="more" transform="translate(20, 20)" fill="#31353B">
                    <path d="M2.51981867,3 L0.479832617,3 C0.215157503,3 0,2.7844186 0,2.51965116 L2.51946995,0 C2.78414507,0 2.99965171,0.214883721 2.99965171,0.48 L2.99965171,2.51965116 C3,2.7844186 2.78449378,3 2.51981867,3 Z" id="Fill-49-Copy"></path>
                </g>
                <g id="icon-/-charge+" transform="translate(4.9981, 7)">
                    <polygon id="Rectangle-Copy-4" fill="#31353B" fill-rule="nonzero" transform="translate(9.5019, 9) scale(-1, 1) translate(-9.5019, -9)" points="6.00189934 8 13.0018993 8 13.0018993 10 6.00189934 10"></polygon>
                    <polygon id="Rectangle-Copy-7" fill="#31353B" fill-rule="nonzero" transform="translate(9.5019, 1) scale(-1, 1) translate(-9.5019, -1)" points="6.00189934 0 13.0018993 0 13.0018993 2 6.00189934 2"></polygon>
                    <polygon id="Rectangle-Copy-6" fill="#31353B" fill-rule="nonzero" transform="translate(9.5019, 5) scale(-1, 1) translate(-9.5019, -5)" points="6.00189934 4 13.0018993 4 13.0018993 6 6.00189934 6"></polygon>
                    <polygon id="Rectangle-Copy-5" fill="#31353B" fill-rule="nonzero" transform="translate(2.0019, 9) scale(-1, 1) translate(-2.0019, -9)" points="1.00189934 8 3.00189934 8 3.00189934 10 1.00189934 10"></polygon>
                    <polygon id="Rectangle-Copy-8" fill="#31353B" fill-rule="nonzero" transform="translate(2.0019, 1) scale(-1, 1) translate(-2.0019, -1)" points="1.00189934 0 3.00189934 0 3.00189934 2 1.00189934 2"></polygon>
                    <polyline id="Path-3" stroke="#31353B" points="8.8817842e-16 4 2.00189934 6 5.00189934 3"></polyline>
                </g>
            </g>
        </g>
    </g>
</svg>